<svg width="70" height="70" viewBox="0 0 70 70" fill="none" xmlns="http://www.w3.org/2000/svg">
<g clip-path="url(#clip0_1_9)">
<path fill-rule="evenodd" clip-rule="evenodd" d="M35.0008 1.45834C26.6919 1.46265 18.6554 4.40551 12.3284 9.7607C6.00137 15.1159 1.79639 22.5342 0.465348 30.6892C-0.865698 38.8441 0.763963 47.204 5.06297 54.2739C9.36197 61.3437 16.05 66.6627 23.9311 69.2795C25.6698 69.6022 26.3247 68.5246 26.3247 67.6083C26.3247 66.6921 26.2899 64.0355 26.2783 61.1311C16.5416 63.2344 14.4841 57.0223 14.4841 57.0223C12.8961 52.9884 10.601 51.928 10.601 51.928C7.42501 49.7728 10.8387 49.8131 10.8387 49.8131C14.3566 50.0609 16.2055 53.4033 16.2055 53.4033C19.3235 58.7223 24.3947 57.1836 26.3884 56.2846C26.7014 54.0314 27.6113 52.4985 28.614 51.6284C20.8362 50.7524 12.6643 47.7674 12.6643 34.4325C12.6161 30.9742 13.9067 27.6297 16.2692 25.0912C15.9099 24.2152 14.7102 20.6769 16.6111 15.8709C16.6111 15.8709 19.5496 14.9373 26.2378 19.438C31.9745 17.8781 38.0271 17.8781 43.7638 19.438C50.4462 14.9373 53.3788 15.8709 53.3788 15.8709C55.2856 20.6654 54.0859 24.2037 53.7266 25.0912C56.0965 27.6301 57.3899 30.9804 57.3373 34.444C57.3373 47.8077 49.148 50.7524 41.3586 51.6111C42.6105 52.6945 43.729 54.8094 43.729 58.0595C43.729 62.7158 43.6885 66.4616 43.6885 67.6083C43.6885 68.5361 44.3202 69.6195 46.0937 69.2795C53.9757 66.6623 60.6643 61.3425 64.9633 54.2714C69.2622 47.2003 70.891 38.8392 69.5584 30.6835C68.2259 22.5278 64.0188 15.1094 57.6897 9.75511C51.3606 4.40084 43.3223 1.45992 35.0124 1.45834H35.0008Z" fill="#191717"/>
<path d="M23.4145 58.2612C23.4145 58.5436 23.09 58.7856 22.6727 58.7914C22.2554 58.7971 21.9135 58.5666 21.9135 58.2842C21.9135 58.0019 22.238 57.7598 22.6553 57.7541C23.0726 57.7483 23.4145 57.9731 23.4145 58.2612Z" fill="#191717"/>
<path d="M26.0805 57.8175C26.1327 58.0998 25.8429 58.3937 25.4256 58.4629C25.0083 58.532 24.6432 58.3649 24.5911 58.0883C24.5389 57.8117 24.8403 57.5121 25.246 57.4371C25.6517 57.3622 26.0284 57.5351 26.0805 57.8175Z" fill="#191717"/>
<path d="M20.5513 58.0653C20.4644 58.3361 20.0703 58.4571 19.6762 58.3419C19.2821 58.2266 19.0213 57.9039 19.0966 57.6273C19.172 57.3507 19.5719 57.2239 19.9718 57.3507C20.3717 57.4775 20.6267 57.7829 20.5513 58.0653Z" fill="#191717"/>
<path d="M17.926 56.9358C17.7348 57.149 17.3464 57.0914 17.0277 56.8033C16.7089 56.5151 16.6336 56.1233 16.8248 55.9158C17.0161 55.7083 17.4044 55.766 17.7347 56.0483C18.0651 56.3307 18.1289 56.7283 17.926 56.9358Z" fill="#191717"/>
<path d="M16.054 54.9995C15.8396 55.1494 15.4745 54.9996 15.2716 54.6999C15.2155 54.6461 15.1709 54.5817 15.1404 54.5104C15.11 54.4391 15.0942 54.3624 15.0942 54.285C15.0942 54.2075 15.11 54.1308 15.1404 54.0596C15.1709 53.9883 15.2155 53.9238 15.2716 53.8701C15.486 53.726 15.8512 53.8701 16.054 54.164C16.2569 54.4579 16.2627 54.8497 16.054 54.9995Z" fill="#191717"/>
<path d="M14.6746 52.9999C14.5546 53.06 14.4172 53.0768 14.2861 53.0474C14.1551 53.0179 14.0383 52.9441 13.9559 52.8385C13.7299 52.5965 13.6835 52.2623 13.8574 52.1124C14.0313 51.9626 14.3442 52.0318 14.5703 52.2738C14.7963 52.5158 14.8485 52.8501 14.6746 52.9999Z" fill="#191717"/>
<path d="M13.2546 51.4267C13.1793 51.5996 12.9011 51.6514 12.6751 51.5304C12.449 51.4094 12.281 51.1846 12.3621 51.006C12.4432 50.8274 12.7156 50.7813 12.9417 50.9023C13.1677 51.0233 13.3416 51.2538 13.2546 51.4267Z" fill="#191717"/>
</g>
<defs>
<clipPath id="clip0_1_9">
<rect width="70" height="70" fill="white"/>
</clipPath>
</defs>
</svg>
