<svg width="48" height="40" viewBox="0 0 48 40" fill="none" xmlns="http://www.w3.org/2000/svg">
<path d="M15.095 39.5014C33.2083 39.5014 43.1155 24.4947 43.1155 11.4809C43.1155 11.0547 43.1155 10.6304 43.0867 10.208C45.0141 8.81387 46.6778 7.08773 48 5.11036C46.2028 5.90716 44.2961 6.42947 42.3437 6.6598C44.3996 5.42918 45.9383 3.49336 46.6733 1.21276C44.7402 2.35997 42.6253 3.16841 40.4198 3.60316C38.935 2.02431 36.9712 0.978841 34.8324 0.628527C32.6935 0.278213 30.4988 0.642587 28.5879 1.66526C26.677 2.68794 25.1564 4.31191 24.2615 6.28585C23.3665 8.2598 23.1471 10.4737 23.6371 12.5849C19.7218 12.3885 15.8915 11.371 12.3949 9.59837C8.89831 7.82575 5.81353 5.33768 3.3408 2.29564C2.08146 4.46363 1.69574 7.03009 2.2622 9.47248C2.82865 11.9149 4.30468 14.0495 6.38976 15.4419C4.82246 15.396 3.2893 14.9731 1.92 14.2092V14.334C1.92062 16.6077 2.7077 18.8112 4.14774 20.5708C5.58778 22.3303 7.59212 23.5376 9.8208 23.9878C8.37096 24.3833 6.84975 24.4411 5.37408 24.1568C6.00363 26.1134 7.22886 27.8244 8.87848 29.0506C10.5281 30.2768 12.5197 30.9569 14.5747 30.9958C12.5329 32.6007 10.1946 33.7874 7.69375 34.4878C5.19287 35.1882 2.57843 35.3887 0 35.0777C4.50367 37.9678 9.74385 39.5007 15.095 39.4937" fill="#1DA1F2"/>
</svg>
