<svg width="72" height="70" viewBox="0 0 72 70" fill="none" xmlns="http://www.w3.org/2000/svg">
<path d="M66.2121 0H5.27731C3.87768 0 2.53537 0.544418 1.54569 1.51349C0.556001 2.48255 0 3.79689 0 5.16736V64.8326C0 66.2031 0.556001 67.5175 1.54569 68.4865C2.53537 69.4556 3.87768 70 5.27731 70H66.2121C67.6117 70 68.954 69.4556 69.9437 68.4865C70.9334 67.5175 71.4894 66.2031 71.4894 64.8326V5.16736C71.4894 3.79689 70.9334 2.48255 69.9437 1.51349C68.954 0.544418 67.6117 0 66.2121 0ZM21.3078 59.6313H10.5596V26.2014H21.3078V59.6313ZM15.9262 21.5688C14.707 21.562 13.5172 21.2018 12.5069 20.5336C11.4965 19.8654 10.711 18.919 10.2494 17.8141C9.78783 16.7091 9.67087 15.4951 9.91328 14.3251C10.1557 13.1551 10.7466 12.0816 11.6115 11.2402C12.4764 10.3988 13.5765 9.82703 14.7729 9.59718C15.9693 9.36732 17.2084 9.48965 18.3339 9.94871C19.4594 10.4078 20.4208 11.183 21.0967 12.1765C21.7727 13.1701 22.1329 14.3374 22.1319 15.5313C22.1434 16.3305 21.9905 17.1239 21.6822 17.864C21.3739 18.6042 20.9165 19.276 20.3374 19.8394C19.7584 20.4028 19.0693 20.8462 18.3115 21.1434C17.5536 21.4405 16.7424 21.5851 15.9262 21.5688ZM60.9248 59.6604H50.1816V41.3972C50.1816 36.0111 47.8433 34.3486 44.8248 34.3486C41.6376 34.3486 38.5099 36.7014 38.5099 41.5333V59.6604H27.7617V26.2257H38.0979V30.8583H38.2369C39.2745 28.8021 42.9085 25.2875 48.4539 25.2875C54.4511 25.2875 60.9298 28.7729 60.9298 38.9813L60.9248 59.6604Z" fill="#0A66C2"/>
</svg>
